<svg id="Layer_1" height="512" viewBox="0 0 512 512" width="512" xmlns="http://www.w3.org/2000/svg" data-name="Layer 1"><rect fill="#666" height="440" rx="56" width="440" x="26" y="40"/><path d="m334.362 125.182c-9.36-3.326-32.556 8.56-45.239 16.93-20.651-6.033-64.331-5.458-80.711 1.556-30.221-21.63-46.213-18.315-46.213-18.315s-10.333 18.509-2.729 45.6c-9.943 12.669-17.355 21.628-17.355 45.383.009 13.4 1.586 25.378 5.137 35.835-.434 0 4.769 11.2 4.915 11.2a60.152 60.152 0 0 0 15.546 18.36c2.88 3.654 36.2 36.994 40 40 .029.038.058.075.088.112-7.073 3.365-18.864 4.254-28.24 1.3l-.032-.012c-2.107-2.388-25.368-5.177-23.828-1.518 2.293 5.427 6.152 13.5 14.594 18.861 2.347 3.565 34.439 35.909 37.769 38.451-2.314 7.68-13.111 10.4-13.111 14.706 0 .389 60.683 59.058 87.5 86.37h127.547a55.768 55.768 0 0 0 36.825-13.83 31.6 31.6 0 0 0 -7.121-5.92l-.026-.049q7.717-.793 14.6-1.936a55.74 55.74 0 0 0 11.722-34.266v-166.522c-5.227-5.221-130.585-130.602-131.638-132.296z" fill="#1a1a1a" opacity=".21"/><path id="path9-5" d="m147.252 252.168c-.434 0 4.769 11.2 4.914 11.2 11.362 20.611 33.258 33.428 70.2 36.966-5.273 4-11.606 11.6-12.485 20.374-6.628 4.278-19.96 5.7-30.321 2.432-14.526-4.587-20.085-33.321-41.831-29.225-4.7.882-3.771 3.988.3 6.626 6.633 4.284 12.867 9.65 17.673 21.069 3.7 8.76 11.471 24.426 36.042 24.426a107.858 107.858 0 0 0 16.578-1.178s.184 22.381.184 31.079c0 10.042-13.553 12.866-13.553 17.691 0 1.908 112.566 2.831 113.1-.209.527-3.056-13.39-7.6-13.519-17.091-.085-5.775.262-9.153.262-34.293s-3.382-34.428-15.154-41.832c36.316-3.725 58.8-12.712 69.753-36.759.851.018 4.467-11.231 4-11.231 2.455-9.081 3.794-19.822 4.042-32.539-.06-34.5-16.573-46.695-19.745-52.42 4.675-26.121-.785-37.994-3.319-42.074-9.361-3.326-32.558 8.56-45.24 16.93-20.651-6.033-64.331-5.458-80.711 1.556-30.221-21.63-46.213-18.315-46.213-18.315s-10.333 18.509-2.73 45.6c-9.942 12.669-17.354 21.628-17.354 45.383.009 13.4 1.586 25.378 5.137 35.835z" fill="#fff"/></svg>